<svg xmlns="http://www.w3.org/2000/svg" width="240" height="240" viewBox="0 0 240 240">
  <rect width="240" height="240" fill="#fff4ea"/>
  <g fill="none" stroke="#f4b39a" stroke-width="4" stroke-linecap="round" stroke-linejoin="round" opacity="0.5">
    <path d="M24 48c10-14 26-14 36 0"/>
    <path d="M86 36l10 18-18 10"/>
    <circle cx="176" cy="56" r="14"/>
    <path d="M160 140c8-10 22-10 30 0"/>
    <path d="M38 168c12-16 30-16 42 0"/>
  </g>
  <g fill="#ffd2b8" stroke="#f08b5e" stroke-width="3" opacity="0.75">
    <circle cx="60" cy="120" r="16"/>
    <circle cx="180" cy="160" r="12"/>
    <path d="M120 196l8 16-16 8-8-16z"/>
  </g>
  <g fill="#d8572a" opacity="0.25">
    <path d="M120 64c6-10 20-10 26 0 6 10-2 24-13 24s-19-14-13-24z"/>
    <path d="M200 100c4-8 16-8 20 0 4 8-2 18-10 18s-14-10-10-18z"/>
  </g>
</svg>
